<svg xmlns="http://www.w3.org/2000/svg" viewBox="0 0 1280 210" width="1280" height="210" role="img" aria-label="Let's build something - thanks for scrolling">
<defs><pattern id="g" width="40" height="40" patternUnits="userSpaceOnUse"><path d="M 40 0 L 0 0 0 40" fill="none" stroke="#161D27" stroke-width="1"/></pattern><filter id="blur" x="-70%" y="-70%" width="240%" height="240%"><feGaussianBlur stdDeviation="90"/></filter></defs><rect width="1280" height="210" fill="#0B0E13"/><g filter="url(#blur)" opacity="0.16"><circle cx="320" cy="60" r="170" fill="#FF6B4A"/><circle cx="980" cy="150" r="170" fill="#7A5CFF"/></g>
<defs><linearGradient id="w1" x1="0" y1="0" x2="1" y2="0"><stop offset="0" stop-color="#FF6B4A" stop-opacity="0.5"/><stop offset="1" stop-color="#7A5CFF" stop-opacity="0.5"/></linearGradient><linearGradient id="w2" x1="0" y1="0" x2="1" y2="0"><stop offset="0" stop-color="#48D6D2" stop-opacity="0.5"/><stop offset="1" stop-color="#FF6B4A" stop-opacity="0.5"/></linearGradient><linearGradient id="shine2" x1="0" y1="0" x2="1" y2="0"><stop offset="0" stop-color="#EDEAE2"/><stop offset="0.45" stop-color="#EDEAE2"/><stop offset="0.5" stop-color="#FF6B4A"/><stop offset="0.55" stop-color="#EDEAE2"/><stop offset="1" stop-color="#EDEAE2"/><animateTransform attributeName="gradientTransform" type="translate" values="-1 0;1 0" dur="6s" repeatCount="indefinite"/></linearGradient></defs>
<text x="640" y="74" text-anchor="middle" font-family="ui-monospace,SFMono-Regular,SF Mono,Menlo,Consolas,Liberation Mono,monospace" font-size="30" font-weight="700" fill="url(#shine2)" letter-spacing="7">LET’S BUILD SOMETHING</text>
<text x="640" y="104" text-anchor="middle" font-family="ui-monospace,SFMono-Regular,SF Mono,Menlo,Consolas,Liberation Mono,monospace" font-size="13" fill="#8A929C" letter-spacing="3">rawatvikas689@gmail.com</text>
<g><animateTransform attributeName="transform" type="translate" values="0 0;-640 0" dur="24s" repeatCount="indefinite"/><path fill="url(#w2)" d="M 0 158 C 160 126 320 190 480 158 C 640 126 800 190 960 158 C 1120 126 1280 190 1440 158 C 1600 126 1760 190 1920 158 L 1920 210 L 0 210 Z"/></g>
<g><animateTransform attributeName="transform" type="translate" values="0 0;-640 0" dur="19s" repeatCount="indefinite"/><path fill="url(#w1)" d="M 0 174 C 160 142 320 206 480 174 C 640 142 800 206 960 174 C 1120 142 1280 206 1440 174 C 1600 142 1760 206 1920 174 L 1920 210 L 0 210 Z"/></g>
</svg>
